<?xml version="1.0" encoding="UTF-8" standalone="no"?>
<!DOCTYPE svg PUBLIC "-//W3C//DTD SVG 1.1//EN"
 "http://www.w3.org/Graphics/SVG/1.1/DTD/svg11.dtd">
<!-- Generated by graphviz version 2.47.0 (20210316.0004)
 -->
<!-- Title: dependencies Pages: 1 -->
<svg width="578pt" height="295pt"
 viewBox="0.00 0.00 578.00 295.00" xmlns="http://www.w3.org/2000/svg" xmlns:xlink="http://www.w3.org/1999/xlink">
<g id="graph0" class="graph" transform="scale(1 1) rotate(0) translate(4 291)">
<title>dependencies</title>
<polygon fill="white" stroke="transparent" points="-4,4 -4,-291 574,-291 574,4 -4,4"/>
<text text-anchor="start" x="264.01" y="-42.4" font-family="Times-12" font-weight="bold" font-size="14.00">Legend</text>
<polygon fill="#ffffb3" stroke="transparent" points="51,-10 51,-30 71,-30 71,-10 51,-10"/>
<text text-anchor="start" x="74.63" y="-15.4" font-family="Times-12" font-size="14.00"> &#160;Declarations</text>
<polygon fill="#8dd3c7" stroke="transparent" points="164,-10 164,-30 184,-30 184,-10 164,-10"/>
<text text-anchor="start" x="187.73" y="-15.4" font-family="Times-12" font-size="14.00"> &#160;Module</text>
<polygon fill="#80b1d3" stroke="transparent" points="250,-10 250,-30 270,-30 270,-10 250,-10"/>
<text text-anchor="start" x="273.78" y="-15.4" font-family="Times-12" font-size="14.00"> &#160;Bootstrap</text>
<polygon fill="#fdb462" stroke="transparent" points="347,-10 347,-30 367,-30 367,-10 347,-10"/>
<text text-anchor="start" x="370.67" y="-15.4" font-family="Times-12" font-size="14.00"> &#160;Providers</text>
<polygon fill="#fb8072" stroke="transparent" points="443,-10 443,-30 463,-30 463,-10 443,-10"/>
<text text-anchor="start" x="466.73" y="-15.4" font-family="Times-12" font-size="14.00"> &#160;Exports</text>
<g id="clust1" class="cluster">
<title>cluster_AppModule</title>
<polygon fill="none" stroke="black" stroke-dasharray="1,5" points="8,-70 8,-271 280,-271 280,-70 8,-70"/>
</g>
<g id="clust3" class="cluster">
<title>cluster_AppModule_imports</title>
<polygon fill="none" stroke="black" points="164,-78 164,-195 272,-195 272,-78 164,-78"/>
</g>
<g id="clust6" class="cluster">
<title>cluster_AppModule_providers</title>
<polygon fill="none" stroke="black" points="16,-143 16,-195 146,-195 146,-143 16,-143"/>
</g>
<g id="clust7" class="cluster">
<title>cluster_AuthModule</title>
<polygon fill="none" stroke="black" stroke-dasharray="1,5" points="288,-211 288,-279 552,-279 552,-211 288,-211"/>
</g>
<g id="clust10" class="cluster">
<title>cluster_AuthModule_exports</title>
<polygon fill="none" stroke="black" points="438,-219 438,-271 544,-271 544,-219 438,-219"/>
</g>
<g id="clust12" class="cluster">
<title>cluster_AuthModule_providers</title>
<polygon fill="none" stroke="black" points="296,-219 296,-271 430,-271 430,-219 296,-219"/>
</g>
<g id="clust13" class="cluster">
<title>cluster_UsersModule</title>
<polygon fill="none" stroke="black" stroke-dasharray="1,5" points="288,-135 288,-203 562,-203 562,-135 288,-135"/>
</g>
<g id="clust16" class="cluster">
<title>cluster_UsersModule_exports</title>
<polygon fill="none" stroke="black" points="444,-143 444,-195 554,-195 554,-143 444,-143"/>
</g>
<g id="clust18" class="cluster">
<title>cluster_UsersModule_providers</title>
<polygon fill="none" stroke="black" points="296,-143 296,-195 436,-195 436,-143 296,-143"/>
</g>
<!-- AuthModule -->
<g id="node1" class="node">
<title>AuthModule</title>
<polygon fill="#8dd3c7" stroke="black" points="263.55,-187 260.55,-191 239.55,-191 236.55,-187 176.45,-187 176.45,-151 263.55,-151 263.55,-187"/>
<text text-anchor="middle" x="220" y="-164.8" font-family="Times,serif" font-size="14.00">AuthModule</text>
</g>
<!-- AppModule -->
<g id="node3" class="node">
<title>AppModule</title>
<polygon fill="#8dd3c7" stroke="black" points="198.66,-263 195.66,-267 174.66,-267 171.66,-263 115.34,-263 115.34,-227 198.66,-227 198.66,-263"/>
<text text-anchor="middle" x="157" y="-240.8" font-family="Times,serif" font-size="14.00">AppModule</text>
</g>
<!-- AuthModule&#45;&gt;AppModule -->
<g id="edge1" class="edge">
<title>AuthModule&#45;&gt;AppModule</title>
<path fill="none" stroke="black" d="M187.53,-187.01C187.53,-187.01 187.53,-216.85 187.53,-216.85"/>
<polygon fill="black" stroke="black" points="184.03,-216.85 187.53,-226.85 191.03,-216.85 184.03,-216.85"/>
</g>
<!-- AuthService  -->
<g id="node5" class="node">
<title>AuthService </title>
<polygon fill="#fb8072" stroke="black" points="535.98,-263 446.02,-263 446.02,-227 535.98,-227 535.98,-263"/>
<text text-anchor="middle" x="491" y="-240.8" font-family="Times,serif" font-size="14.00">AuthService </text>
</g>
<!-- AuthModule&#45;&gt;AuthService  -->
<g id="edge5" class="edge">
<title>AuthModule&#45;&gt;AuthService </title>
<path fill="none" stroke="black" stroke-dasharray="5,2" d="M220.48,-187.11C220.48,-196.9 220.48,-207 220.48,-207 220.48,-207 494.03,-207 494.03,-207 494.03,-207 494.03,-216.89 494.03,-216.89"/>
<polygon fill="black" stroke="black" points="490.53,-216.89 494.03,-226.89 497.53,-216.89 490.53,-216.89"/>
</g>
<!-- UsersModule -->
<g id="node2" class="node">
<title>UsersModule</title>
<polygon fill="#8dd3c7" stroke="black" points="263.92,-122 260.92,-126 239.92,-126 236.92,-122 172.08,-122 172.08,-86 263.92,-86 263.92,-122"/>
<text text-anchor="middle" x="218" y="-99.8" font-family="Times,serif" font-size="14.00">UsersModule</text>
</g>
<!-- UsersModule&#45;&gt;AuthModule -->
<g id="edge4" class="edge">
<title>UsersModule&#45;&gt;AuthModule</title>
<path fill="none" stroke="black" d="M219.97,-122.11C219.97,-122.11 219.97,-140.99 219.97,-140.99"/>
<polygon fill="black" stroke="black" points="216.47,-140.99 219.97,-150.99 223.47,-140.99 216.47,-140.99"/>
</g>
<!-- UsersModule&#45;&gt;AppModule -->
<g id="edge2" class="edge">
<title>UsersModule&#45;&gt;AppModule</title>
<path fill="none" stroke="black" d="M172.18,-104C162.4,-104 154.95,-104 154.95,-104 154.95,-104 154.95,-216.86 154.95,-216.86"/>
<polygon fill="black" stroke="black" points="151.45,-216.86 154.95,-226.86 158.45,-216.86 151.45,-216.86"/>
</g>
<!-- UsersService  -->
<g id="node7" class="node">
<title>UsersService </title>
<polygon fill="#fb8072" stroke="black" points="545.85,-187 452.15,-187 452.15,-151 545.85,-151 545.85,-187"/>
<text text-anchor="middle" x="499" y="-164.8" font-family="Times,serif" font-size="14.00">UsersService </text>
</g>
<!-- UsersModule&#45;&gt;UsersService  -->
<g id="edge7" class="edge">
<title>UsersModule&#45;&gt;UsersService </title>
<path fill="none" stroke="black" stroke-dasharray="5,2" d="M263.77,-98C343.4,-98 499,-98 499,-98 499,-98 499,-140.72 499,-140.72"/>
<polygon fill="black" stroke="black" points="495.5,-140.72 499,-150.72 502.5,-140.72 495.5,-140.72"/>
</g>
<!-- AppService -->
<g id="node4" class="node">
<title>AppService</title>
<ellipse fill="#fdb462" stroke="black" cx="81" cy="-169" rx="56.74" ry="18"/>
<text text-anchor="middle" x="81" y="-164.8" font-family="Times,serif" font-size="14.00">AppService</text>
</g>
<!-- AppService&#45;&gt;AppModule -->
<g id="edge3" class="edge">
<title>AppService&#45;&gt;AppModule</title>
<path fill="none" stroke="black" d="M126.4,-179.89C126.4,-179.89 126.4,-216.79 126.4,-216.79"/>
<polygon fill="black" stroke="black" points="122.9,-216.79 126.4,-226.79 129.9,-216.79 122.9,-216.79"/>
</g>
<!-- AuthService -->
<g id="node6" class="node">
<title>AuthService</title>
<ellipse fill="#fdb462" stroke="black" cx="363" cy="-245" rx="59.11" ry="18"/>
<text text-anchor="middle" x="363" y="-240.8" font-family="Times,serif" font-size="14.00">AuthService</text>
</g>
<!-- AuthService&#45;&gt;AuthModule -->
<g id="edge6" class="edge">
<title>AuthService&#45;&gt;AuthModule</title>
<path fill="none" stroke="black" d="M303.62,-245C273.06,-245 242.13,-245 242.13,-245 242.13,-245 242.13,-197.01 242.13,-197.01"/>
<polygon fill="black" stroke="black" points="245.63,-197.01 242.13,-187.01 238.63,-197.01 245.63,-197.01"/>
</g>
<!-- UsersService -->
<g id="node8" class="node">
<title>UsersService</title>
<ellipse fill="#fdb462" stroke="black" cx="366" cy="-169" rx="61.95" ry="18"/>
<text text-anchor="middle" x="366" y="-164.8" font-family="Times,serif" font-size="14.00">UsersService</text>
</g>
<!-- UsersService&#45;&gt;UsersModule -->
<g id="edge8" class="edge">
<title>UsersService&#45;&gt;UsersModule</title>
<path fill="none" stroke="black" d="M366,-150.98C366,-133.63 366,-110 366,-110 366,-110 274.02,-110 274.02,-110"/>
<polygon fill="black" stroke="black" points="274.02,-106.5 264.02,-110 274.02,-113.5 274.02,-106.5"/>
</g>
</g>
</svg>
